<svg xmlns="http://www.w3.org/2000/svg" width="80" height="24" viewBox="0 0 80 24">
  <path fill="currentColor" d="M77.84 19.939l1.412 1.446a6.665 6.665 0 0 1-2.596 1.945c-1.043.447-2.183.67-3.42.67-1.305 0-2.482-.252-3.529-.76-1.037-.5-1.852-1.204-2.438-2.111-.584-.906-.877-1.945-.877-3.115V7.634h-3.131V5.776c1.721-.045 3.123-.595 4.217-1.65 1.084-1.054 1.643-2.43 1.666-4.126h2.027v5.021h5.568l-.684 2.613H71.17v10.313c0 1.1.293 1.947.879 2.548.584.593 1.404.892 2.459.892 1.217 0 2.324-.483 3.332-1.448m-29.569-2.091c0 1.078.365 1.965 1.1 2.662.738.699 1.73 1.047 2.992 1.047.801 0 1.574-.174 2.32-.529.748-.358 1.506-.911 2.287-1.672v-3.92a10.21 10.21 0 0 0-2.1-.963 7.034 7.034 0 0 0-2.094-.305c-1.447 0-2.557.334-3.338 1.01-.778.677-1.167 1.568-1.167 2.67m9.319 5.601a13 13 0 0 1-.307-2.062c-.986.914-1.99 1.58-3.012 1.992-1.017.416-2.146.621-3.384.621-1.445 0-2.721-.266-3.834-.789-1.111-.531-1.979-1.26-2.594-2.186-.623-.928-.932-1.986-.932-3.178 0-1.195.309-2.252.932-3.187.615-.927 1.506-1.652 2.66-2.183 1.162-.524 2.504-.791 4.045-.791.895 0 1.785.117 2.676.345.895.229 1.941.633 3.133 1.202V11.55c0-1.28-.461-2.336-1.395-3.163-.926-.824-2.123-1.237-3.59-1.237a7.61 7.61 0 0 0-2.955.584 6.515 6.515 0 0 0-2.375 1.65l-1.615-1.412c.896-1.1 2.047-1.957 3.453-2.578 1.408-.619 2.953-.926 4.625-.926 1.654 0 3.133.292 4.438.875 1.305.585 2.328 1.392 3.059 2.423.736 1.031 1.1 2.212 1.1 3.542v7.355c0 2.086.188 3.68.555 4.781H57.59v.005zM32.249 6.876c-1.282 0-2.367.534-3.247 1.601-.883 1.066-1.429 2.481-1.634 4.244h9.8c-.208-1.764-.751-3.178-1.634-4.244-.884-1.067-1.976-1.601-3.285-1.601m9.901 7.118c0 .318-.045.766-.137 1.344H27.367c.229 1.854.921 3.292 2.08 4.314 1.158 1.016 2.652 1.524 4.488 1.524a7.714 7.714 0 0 0 3.022-.6c.962-.402 1.778-1.048 2.442-1.941l1.717 1.235a8.948 8.948 0 0 1-3.469 3.062C36.226 23.643 34.633 24 32.869 24c-1.993 0-3.799-.418-5.414-1.254-1.617-.84-2.884-2.001-3.8-3.492-.918-1.49-1.376-3.172-1.376-5.053 0-1.855.424-3.525 1.273-5.003.845-1.479 2.032-2.635 3.558-3.473 1.524-.835 3.24-1.254 5.139-1.254 1.903 0 3.606.411 5.108 1.239a9.073 9.073 0 0 1 3.52 3.401c.85 1.444 1.273 3.073 1.273 4.883M1.297 9.809V23.45h4.745V9.816s1.839-2.952 4.788-2.944c2.396.002 4.053 1.655 4.053 4.419v12.158h4.79V11.292c0-3.868-2.949-6.704-7.735-6.815C8.471 4.389 6.466 6.6 5.781 7.53a17.816 17.816 0 0 0-.357-2.499H.749c.362 1.099.548 2.691.548 4.778" />
</svg>
